<?xml version="1.0" encoding="UTF-8" standalone="no"?>
<!-- Created with Inkscape (http://www.inkscape.org/) -->

<svg
   xmlns:dc="http://purl.org/dc/elements/1.1/"
   xmlns:cc="http://creativecommons.org/ns#"
   xmlns:rdf="http://www.w3.org/1999/02/22-rdf-syntax-ns#"
   xmlns:svg="http://www.w3.org/2000/svg"
   xmlns="http://www.w3.org/2000/svg"
   xmlns:sodipodi="http://sodipodi.sourceforge.net/DTD/sodipodi-0.dtd"
   xmlns:inkscape="http://www.inkscape.org/namespaces/inkscape"
   version="1.1"
   id="svg3723"
   xml:space="preserve"
   width="535.63702"
   height="268.49219"
   viewBox="0 0 535.63704 268.4922"
   sodipodi:docname="jst_logo.svg"
   inkscape:version="0.92.4 (5da689c313, 2019-01-14)"><metadata
     id="metadata3729"><rdf:RDF><cc:Work
         rdf:about=""><dc:format>image/svg+xml</dc:format><dc:type
           rdf:resource="http://purl.org/dc/dcmitype/StillImage" /><dc:title></dc:title></cc:Work></rdf:RDF></metadata><defs
     id="defs3727"><clipPath
       clipPathUnits="userSpaceOnUse"
       id="clipPath3739"><path
         d="M 0,1000 H 1000 V 0 H 0 Z"
         id="path3737"
         inkscape:connector-curvature="0" /></clipPath></defs><sodipodi:namedview
     pagecolor="#ffffff"
     bordercolor="#666666"
     borderopacity="1"
     objecttolerance="10"
     gridtolerance="10"
     guidetolerance="10"
     inkscape:pageopacity="0"
     inkscape:pageshadow="2"
     inkscape:window-width="1920"
     inkscape:window-height="1137"
     id="namedview3725"
     showgrid="false"
     inkscape:zoom="1.4520001"
     inkscape:cx="315.05766"
     inkscape:cy="25.797817"
     inkscape:window-x="-8"
     inkscape:window-y="-8"
     inkscape:window-maximized="1"
     inkscape:current-layer="g3731" /><g
     id="g3731"
     inkscape:groupmode="layer"
     inkscape:label="0182_JST_logo_VP"
     transform="matrix(1.3333333,0,0,-1.3333333,-398.84839,800.91283)"><g
       id="g3733"><g
         id="g3735"
         clip-path="url(#clipPath3739)"><g
           id="g3741"
           transform="translate(541.7026,534.0176)"><path
             d="m 0,0 v -10.084 c 0,-2.742 -1.25,-4.174 -3.568,-4.174 -1.453,0 -2.723,0.686 -3.288,1.432 l 1.331,1.291 c 0.383,-0.382 1.008,-0.807 1.856,-0.807 1.088,0 1.753,0.727 1.753,2.157 V 0 Z"
             style="fill:#ffffff;fill-opacity:1;fill-rule:nonzero;stroke:none"
             id="path3743"
             inkscape:connector-curvature="0" /></g><g
           id="g3745"
           transform="translate(559.7524,534.0176)"><path
             d="m 0,0 v -8.429 c 0,-3.811 -2.278,-5.829 -5.344,-5.829 -3.065,0 -5.344,2.018 -5.344,5.829 V 0 h 1.937 v -8.369 c 0,-2.863 1.431,-3.973 3.407,-3.973 1.977,0 3.428,1.11 3.428,3.973 V 0 Z"
             style="fill:#ffffff;fill-opacity:1;fill-rule:nonzero;stroke:none"
             id="path3747"
             inkscape:connector-curvature="0" /></g><g
           id="g3749"
           transform="translate(577.8018,534.0176)"><path
             d="m 0,0 v -14.116 h -1.854 l -6.897,10.607 v -10.607 h -1.936 V 0 h 1.875 l 6.896,-10.607 V 0 Z"
             style="fill:#ffffff;fill-opacity:1;fill-rule:nonzero;stroke:none"
             id="path3751"
             inkscape:connector-curvature="0" /></g><g
           id="g3753"
           transform="translate(597.4053,527.3018)"><path
             d="m 0,0 v -4.254 c -1.149,-2.017 -3.065,-3.288 -5.787,-3.288 -3.993,0 -6.857,3.207 -6.857,7.199 0,3.973 2.864,7.18 6.857,7.18 2.54,0 4.638,-1.311 5.828,-3.287 L -1.734,2.662 c -0.827,1.372 -2.259,2.258 -4.053,2.258 -2.924,0 -4.88,-2.358 -4.88,-5.263 0,-2.923 1.956,-5.263 4.88,-5.263 1.935,0 3.145,0.726 3.871,1.816 v 2.036 H -5.727 V 0 Z"
             style="fill:#ffffff;fill-opacity:1;fill-rule:nonzero;stroke:none"
             id="path3755"
             inkscape:connector-curvature="0" /></g><g
           id="g3757"
           transform="translate(614.2246,532.1016)"><path
             d="M 0,0 H -4.154 V -12.2 H -6.069 V 0 h -4.155 V 1.916 H 0 Z"
             style="fill:#ffffff;fill-opacity:1;fill-rule:nonzero;stroke:none"
             id="path3759"
             inkscape:connector-curvature="0" /></g><g
           id="g3761"
           transform="translate(631.5684,534.0176)"><path
             d="m 0,0 v -8.429 c 0,-3.811 -2.278,-5.829 -5.343,-5.829 -3.065,0 -5.344,2.018 -5.344,5.829 V 0 h 1.936 v -8.369 c 0,-2.863 1.431,-3.973 3.408,-3.973 1.976,0 3.427,1.11 3.427,3.973 V 0 Z"
             style="fill:#ffffff;fill-opacity:1;fill-rule:nonzero;stroke:none"
             id="path3763"
             inkscape:connector-curvature="0" /></g><g
           id="g3765"
           transform="translate(640.8667,526.8389)"><path
             d="m 0,0 h 3.368 c 1.694,0 2.621,1.25 2.621,2.641 0,1.372 -0.927,2.622 -2.621,2.622 H 0 Z M 3.327,-1.917 H 0 v -5.02 H -1.936 V 7.179 h 5.304 c 2.863,0 4.597,-2.036 4.597,-4.538 0,-1.875 -0.967,-3.489 -2.642,-4.174 L 8.369,-6.937 H 6.17 Z"
             style="fill:#ffffff;fill-opacity:1;fill-rule:nonzero;stroke:none"
             id="path3767"
             inkscape:connector-curvature="0" /></g><g
           id="g3769"
           transform="translate(666.6792,534.0176)"><path
             d="m 0,0 v -14.116 h -1.854 l -6.897,10.607 v -10.607 h -1.936 V 0 h 1.875 l 6.896,-10.607 V 0 Z"
             style="fill:#ffffff;fill-opacity:1;fill-rule:nonzero;stroke:none"
             id="path3771"
             inkscape:connector-curvature="0" /></g><g
           id="g3773"
           transform="translate(683.5,521.8369)"><path
             d="m 0,0 v -1.936 h -9.357 v 14.117 h 9.256 v -1.916 h -7.34 V 6.071 h 6.715 V 4.195 H -7.441 V 0 Z"
             style="fill:#ffffff;fill-opacity:1;fill-rule:nonzero;stroke:none"
             id="path3775"
             inkscape:connector-curvature="0" /></g><g
           id="g3777"
           transform="translate(692.4951,526.8389)"><path
             d="m 0,0 h 3.368 c 1.694,0 2.621,1.25 2.621,2.641 0,1.372 -0.927,2.622 -2.621,2.622 H 0 Z M 3.327,-1.917 H 0 v -5.02 H -1.936 V 7.179 h 5.304 c 2.863,0 4.597,-2.036 4.597,-4.538 0,-1.875 -0.967,-3.489 -2.642,-4.174 L 8.369,-6.937 H 6.17 Z"
             style="fill:#ffffff;fill-opacity:1;fill-rule:nonzero;stroke:none"
             id="path3779"
             inkscape:connector-curvature="0" /></g><g
           id="g3781"
           transform="translate(545.5347,499.5928)"><path
             d="m 0,0 c 0,-2.199 -1.754,-4.094 -5,-4.094 -2.925,0 -4.921,1.473 -5.688,3.207 l 1.835,0.766 c 0.484,-1.008 1.795,-2.016 3.791,-2.016 1.694,0 3.025,0.785 3.025,2.075 0,1.272 -1.25,1.756 -3.65,2.442 -2.843,0.807 -4.698,1.673 -4.617,4.134 0.08,2.278 1.935,3.85 4.86,3.85 2.641,0 4.315,-1.411 4.98,-3.165 L -2.299,6.573 c -0.363,0.969 -1.17,1.856 -3.085,1.856 -2.057,0 -2.864,-1.008 -2.864,-1.996 C -8.248,5.364 -7.259,4.88 -5,4.234 -2.137,3.429 0,2.561 0,0"
             style="fill:#ffffff;fill-opacity:1;fill-rule:nonzero;stroke:none"
             id="path3783"
             inkscape:connector-curvature="0" /></g><g
           id="g3785"
           transform="translate(561.6484,497.6357)"><path
             d="m 0,0 v -1.936 h -9.357 v 14.118 h 9.256 v -1.917 h -7.34 V 6.071 h 6.715 V 4.195 H -7.441 V 0 Z"
             style="fill:#ffffff;fill-opacity:1;fill-rule:nonzero;stroke:none"
             id="path3787"
             inkscape:connector-curvature="0" /></g><g
           id="g3789"
           transform="translate(570.644,502.6377)"><path
             d="m 0,0 h 3.367 c 1.695,0 2.622,1.25 2.622,2.642 0,1.371 -0.927,2.621 -2.622,2.621 H 0 Z M 3.328,-1.916 H 0 V -6.937 H -1.936 V 7.18 h 5.303 c 2.864,0 4.599,-2.037 4.599,-4.538 0,-1.876 -0.968,-3.489 -2.642,-4.175 L 8.369,-6.937 H 6.17 Z"
             style="fill:#ffffff;fill-opacity:1;fill-rule:nonzero;stroke:none"
             id="path3791"
             inkscape:connector-curvature="0" /></g><g
           id="g3793"
           transform="translate(596.9209,509.8174)"><path
             d="M 0,0 -5.202,-14.117 H -7.078 L -12.261,0 h 2.057 L -6.13,-11.233 -2.057,0 Z"
             style="fill:#ffffff;fill-opacity:1;fill-rule:nonzero;stroke:none"
             id="path3795"
             inkscape:connector-curvature="0" /></g><path
           d="m 605.393,495.7 h -1.916 v 14.117 h 1.916 z"
           style="fill:#ffffff;fill-opacity:1;fill-rule:nonzero;stroke:none"
           id="path3797"
           inkscape:connector-curvature="0" /><g
           id="g3799"
           transform="translate(623.2603,499.7334)"><path
             d="m 0,0 1.754,-0.867 c -1.169,-1.996 -3.267,-3.308 -5.807,-3.308 -3.993,0 -6.857,3.207 -6.857,7.199 0,3.973 2.864,7.18 6.857,7.18 2.54,0 4.638,-1.31 5.807,-3.287 L 0,6.03 c -0.827,1.371 -2.259,2.258 -4.053,2.258 -2.925,0 -4.881,-2.359 -4.881,-5.264 0,-2.922 1.956,-5.262 4.881,-5.262 1.794,0 3.226,0.886 4.053,2.238"
             style="fill:#ffffff;fill-opacity:1;fill-rule:nonzero;stroke:none"
             id="path3801"
             inkscape:connector-curvature="0" /></g><g
           id="g3803"
           transform="translate(641.229,497.6357)"><path
             d="m 0,0 v -1.936 h -9.356 v 14.118 h 9.255 v -1.917 h -7.34 V 6.071 h 6.715 V 4.195 H -7.441 V 0 Z"
             style="fill:#ffffff;fill-opacity:1;fill-rule:nonzero;stroke:none"
             id="path3805"
             inkscape:connector-curvature="0" /></g><g
           id="g3807"
           transform="translate(545.0708,483.7002)"><path
             d="M 0,0 H -4.154 V -12.201 H -6.069 V 0 h -4.155 V 1.916 H 0 Z"
             style="fill:#ffffff;fill-opacity:1;fill-rule:nonzero;stroke:none"
             id="path3809"
             inkscape:connector-curvature="0" /></g><g
           id="g3811"
           transform="translate(561.1846,473.4355)"><path
             d="m 0,0 v -1.937 h -9.357 v 14.118 h 9.256 v -1.916 h -7.34 V 6.07 h 6.715 V 4.195 H -7.441 V 0 Z"
             style="fill:#ffffff;fill-opacity:1;fill-rule:nonzero;stroke:none"
             id="path3813"
             inkscape:connector-curvature="0" /></g><g
           id="g3815"
           transform="translate(575.1812,477.2666)"><path
             d="M 0,0 -1.835,5.466 -3.69,0 Z M 0.686,-1.874 H -4.355 L -5.747,-5.768 H -7.845 L -2.783,8.35 h 1.876 L 4.175,-5.768 H 2.057 Z"
             style="fill:#ffffff;fill-opacity:1;fill-rule:nonzero;stroke:none"
             id="path3817"
             inkscape:connector-curvature="0" /></g><g
           id="g3819"
           transform="translate(599.7437,485.6162)"><path
             d="m 0,0 v -14.117 h -1.916 v 10.426 l -4.376,-7.099 h -1.25 l -4.376,7.099 v -10.426 h -1.915 V 0 h 1.855 L -6.917,-8.288 -1.855,0 Z"
             style="fill:#ffffff;fill-opacity:1;fill-rule:nonzero;stroke:none"
             id="path3821"
             inkscape:connector-curvature="0" /></g><g
           id="g3823"
           transform="translate(367.0913,570.4375)"><path
             d="m 0,0 c -3.983,0 -7.346,1.097 -10.09,3.295 -2.748,2.193 -4.118,4.871 -4.118,8.03 0,3.157 1.37,5.835 4.118,8.031 2.744,2.196 6.107,3.295 10.09,3.295 3.842,0 7.172,-1.099 9.987,-3.295 2.812,-2.196 4.222,-4.874 4.222,-8.031 0,-3.159 -1.41,-5.837 -4.222,-8.03 C 7.172,1.097 3.842,0 0,0 m 13.797,-20.593 0.412,-0.205 v -106.875 c 0,-6.04 -1.441,-11.667 -4.325,-16.886 -2.883,-5.215 -6.795,-9.813 -11.737,-13.796 -4.943,-3.98 -10.709,-7.104 -17.297,-9.371 -6.59,-2.263 -13.663,-3.396 -21.211,-3.396 -6.866,0 -12.15,1.133 -15.856,3.396 -3.707,2.267 -6.454,4.773 -8.237,7.517 -1.236,2.059 -2.06,3.983 -2.472,5.767 -0.411,1.785 -0.755,3.158 -1.029,4.117 v 0.207 0.822 0.207 c 0,3.159 1.371,5.836 4.118,8.031 2.746,2.198 6.108,3.295 10.091,3.295 3.842,0 7.172,-1.097 9.987,-3.295 2.812,-2.195 4.221,-4.872 4.221,-8.031 0,-3.157 -1.409,-5.834 -4.221,-8.03 -2.815,-2.195 -6.145,-3.296 -9.987,-3.296 -4.669,0 -8.443,1.442 -11.326,4.325 0.274,-0.685 0.548,-1.268 0.824,-1.751 0.273,-0.479 0.685,-1.061 1.235,-1.75 1.648,-2.606 4.187,-4.974 7.62,-7.105 3.43,-2.126 8.443,-3.192 15.032,-3.192 5.766,0 10.879,1.339 15.341,4.016 4.46,2.677 7.516,6.076 9.164,10.193 0.547,1.102 0.891,2.131 1.029,3.09 0.136,0.962 0.206,1.718 0.206,2.264 0.274,0.277 0.413,0.688 0.413,1.236 v 21.416 106.875 0.205 c 0.272,0.274 0.479,0.413 0.617,0.413 h 26.77 c 0.412,0 0.618,-0.139 0.618,-0.413"
             style="fill:#ffffff;fill-opacity:1;fill-rule:nonzero;stroke:none"
             id="path3825"
             inkscape:connector-curvature="0" /></g><g
           id="g3827"
           transform="translate(469.3516,485.3906)"><path
             d="m 0,0 v -0.618 c -0.277,-3.706 -1.306,-6.794 -3.089,-9.266 -1.786,-2.471 -3.983,-4.53 -6.589,-6.178 -2.61,-1.647 -5.869,-3.089 -9.781,-4.325 -3.914,-1.234 -8.823,-1.852 -14.724,-1.852 h -0.206 c -8.514,0 -15.068,1.133 -19.666,3.397 -4.601,2.266 -8.066,4.839 -10.399,7.723 -1.512,1.921 -2.506,3.707 -2.985,5.354 -0.484,1.646 -0.86,3.018 -1.133,4.118 V -0.823 0 c 0,3.157 1.37,5.834 4.118,8.031 2.745,2.196 6.107,3.295 10.09,3.295 3.843,0 7.172,-1.099 9.988,-3.295 2.812,-2.197 4.221,-4.874 4.221,-8.031 0,-3.295 -1.409,-6.007 -4.221,-8.135 -2.816,-2.129 -6.145,-3.191 -9.988,-3.191 -4.256,0 -7.689,1.166 -10.296,3.501 0.135,-0.549 0.377,-1.029 0.721,-1.441 0.341,-0.413 0.65,-0.894 0.927,-1.442 2.058,-2.609 5.283,-4.977 9.678,-7.104 4.392,-2.13 10.708,-3.193 18.945,-3.193 h 1.647 c 0.959,0 2.195,0.136 3.707,0.413 5.077,0.546 9.025,2.025 11.84,4.427 2.813,2.4 4.222,5.113 4.222,8.134 0,3.018 -1.615,6.142 -4.839,9.37 -3.227,3.224 -8.752,6.075 -16.577,8.545 -8.376,2.607 -14.861,5.766 -19.46,9.473 -4.601,3.706 -7.999,7.241 -10.193,10.606 -2.198,3.361 -3.501,6.245 -3.912,8.647 -0.412,2.402 -0.618,3.74 -0.618,4.016 v 0.618 c 0.273,3.706 1.303,6.76 3.089,9.164 1.782,2.4 3.98,4.494 6.589,6.281 2.332,1.508 5.251,2.847 8.752,4.016 3.501,1.164 7.857,1.885 13.076,2.162 h 2.677 0.206 c 8.51,0 15.065,-1.169 19.665,-3.501 4.599,-2.336 8.063,-4.875 10.4,-7.62 1.509,-1.923 2.503,-3.706 2.986,-5.353 0.479,-1.648 0.855,-3.022 1.132,-4.12 v -0.616 -1.031 c 0,-3.158 -1.374,-5.836 -4.118,-8.031 -2.748,-2.197 -6.111,-3.293 -10.09,-3.293 -3.846,0 -7.175,1.096 -9.987,3.293 -2.816,2.195 -4.222,4.873 -4.222,8.031 0,3.157 1.406,5.834 4.222,8.031 2.812,2.196 6.141,3.295 9.987,3.295 4.253,0 7.686,-1.167 10.295,-3.501 -0.138,0.548 -0.379,0.995 -0.72,1.339 -0.344,0.341 -0.653,0.789 -0.927,1.338 -2.059,2.607 -5.286,4.975 -9.678,7.105 -4.395,2.126 -10.708,3.192 -18.945,3.192 h -0.206 c -1.647,-0.138 -3.365,-0.278 -5.148,-0.412 -1.512,-0.277 -3.263,-0.515 -5.251,-0.721 -1.992,-0.205 -4.016,-0.652 -6.075,-1.338 -0.277,0 -0.447,-0.036 -0.515,-0.103 -0.07,-0.072 -0.241,-0.103 -0.515,-0.103 -4.395,-2.336 -6.589,-5.219 -6.589,-8.649 0,-3.161 1.988,-6.521 5.971,-10.089 3.981,-3.573 10.091,-6.729 18.328,-9.474 4.118,-1.374 8.237,-2.814 12.355,-4.324 4.119,-1.513 7.79,-3.469 11.017,-5.869 3.225,-2.404 5.834,-5.39 7.826,-8.958 C -0.997,9.813 0,5.354 0,0"
             style="fill:#ffffff;fill-opacity:1;fill-rule:nonzero;stroke:none"
             id="path3829"
             inkscape:connector-curvature="0" /></g><g
           id="g3831"
           transform="translate(549.9487,550.2578)"><path
             d="M 0,0 C 0.412,0 0.617,-0.207 0.617,-0.618 0.617,-1.169 0.412,-1.442 0,-1.442 h -26.152 v -85.046 l -0.207,-0.413 c 0,-0.138 -0.205,-0.205 -0.617,-0.205 h -26.771 c -0.276,0 -0.482,0.067 -0.617,0.205 v 0.413 85.046 h -12.973 c -0.412,0 -0.618,0.273 -0.618,0.824 0,0.411 0.206,0.618 0.618,0.618 h 12.973 v 20.798 0.205 0.206 h 0.205 c 4.943,2.06 9.026,4.048 12.253,5.972 3.224,1.921 5.834,3.739 7.825,5.458 1.989,1.715 3.43,3.258 4.325,4.632 0.891,1.371 1.474,2.471 1.751,3.294 0.134,0.275 0.205,0.686 0.205,1.237 v 0.411 c 0,0.273 0.135,0.413 0.412,0.413 l 0.412,0.205 c 0.135,-0.138 0.273,-0.205 0.412,-0.205 h 0.205 c 0.135,-0.14 0.207,-0.277 0.207,-0.413 V 20.798 0 Z"
             style="fill:#ffffff;fill-opacity:1;fill-rule:nonzero;stroke:none"
             id="path3833"
             inkscape:connector-curvature="0" /></g><g
           id="g3835"
           transform="translate(406.7329,600.4473)"><path
             d="m 0,0 c -0.546,0.656 -3.006,0 -12.135,-2.569 -9.128,-2.571 -10.658,-3.008 -15.906,-6.234 -5.247,-3.224 -7.407,-3.752 -7.407,-3.752 -0.07,0.167 -0.152,0.268 -0.313,0.36 -0.244,0.139 -0.544,0.126 -0.824,0.108 -1.503,-0.094 -3.099,-0.461 -4.482,-0.406 -1.383,-0.055 -2.978,0.311 -4.481,0.405 -0.281,0.018 -0.58,0.031 -0.825,-0.108 -0.161,-0.092 -0.243,-0.193 -0.313,-0.36 0,0 -2.16,0.527 -7.408,3.751 -5.248,3.225 -6.778,3.662 -15.907,6.231 -9.128,2.568 -11.588,3.224 -12.135,2.568 -0.547,-0.656 -5.903,-11.643 -6.011,-22.303 0.689,-9.092 2.88,-16.418 4.627,-21.815 0.317,-0.981 1.345,-1.543 2.343,-1.282 5.106,1.335 19.622,5.2 22.002,6.593 2.897,1.694 10.167,6.123 11.696,9.894 1.148,1.585 1.067,2.804 1.067,2.804 0.299,-0.376 0.854,-0.311 1.253,-0.162 1.313,0.49 2.704,0.735 4.093,0.738 1.389,-0.003 2.78,-0.248 4.093,-0.737 0.4,-0.149 0.954,-0.214 1.254,0.161 0,0 -0.082,-1.218 1.066,-2.803 1.531,-3.771 8.801,-8.198 11.698,-9.893 2.38,-1.392 16.897,-5.254 22.004,-6.588 0.997,-0.261 2.025,0.3 2.342,1.282 1.746,5.398 3.936,12.723 4.624,21.816 C 5.904,-11.642 0.547,-0.655 0,0"
             style="fill:#ffffff;fill-opacity:1;fill-rule:nonzero;stroke:none"
             id="path3837"
             inkscape:connector-curvature="0" /></g></g></g></g></svg>